<svg id="Cart_Icon" data-name="Cart Icon" xmlns="http://www.w3.org/2000/svg" width="24" height="24" viewBox="0 0 24 24">
  <rect id="Rectangle_570" data-name="Rectangle 570" width="24" height="24" fill="#fff" opacity="0"/>
  <path id="Path_1373" data-name="Path 1373" d="M21.08,7a2,2,0,0,0-1.7-1H6.58L6,3.74A1,1,0,0,0,5,3H3A1,1,0,0,0,3,5H4.24L7,15.26A1,1,0,0,0,8,16h9a1,1,0,0,0,.89-.55l3.28-6.56A2,2,0,0,0,21.08,7Z" fill="#fff"/>
  <circle id="Ellipse_173" data-name="Ellipse 173" cx="1.5" cy="1.5" r="1.5" transform="translate(6 18)" fill="#fff"/>
  <circle id="Ellipse_174" data-name="Ellipse 174" cx="1.5" cy="1.5" r="1.5" transform="translate(16 18)" fill="#fff"/>
</svg>
